<svg xmlns="http://www.w3.org/2000/svg" enable-background="new 0 0 512 512" viewBox="0 0 512 512"><path fill="#fff5f5" d="M386,16h-20H156c-22.056,0-40,17.944-40,40v120l-10,30l10,30c0,15.678,0,211.452,0,220c0,22.056,17.944,40,40,40h280c22.056,0,40-17.944,40-40V126v-20l-70-20L386,16z"/><polygon fill="#ece6f2" points="386 106 476 106 386 16"/><path fill="#d3cbe4" d="M256 106h-80c-5.523 0-10-4.477-10-10s4.477-10 10-10h80c5.523 0 10 4.477 10 10S261.523 106 256 106zM336 146H176c-5.523 0-10-4.477-10-10s4.477-10 10-10h160c5.522 0 10 4.477 10 10S341.522 146 336 146zM336 186H176c-5.523 0-10-4.477-10-10s4.477-10 10-10h160c5.522 0 10 4.477 10 10S341.522 186 336 186z"/><path fill="#80aaff" d="M391,236H116l-80-30c0,26.64,0,148.198,0,165.667C36,401.626,60.374,426,90.334,426c17.568,0,282.265,0,300.667,0c19.299,0,35-15.701,35-35V271C426,251.701,410.299,236,391,236z"/><path fill="#6680ff" d="M116,236H66c-16.569,0-30-13.431-30-30l0,0c0-16.569,13.431-30,30-30h50V236z"/><g><path fill="#fff5f5" d="M141 276h-35c-5.523 0-10 4.478-10 10 0 39.299 0 48.72 0 90 0 5.522 4.477 10 10 10s10-4.478 10-10v-30h25c19.299 0 35-15.701 35-35S160.299 276 141 276zM141 326h-25v-30h25c8.271 0 15 6.728 15 15S149.271 326 141 326zM221 276h-15c-5.523 0-10 4.478-10 10v90c0 5.522 4.477 10 10 10h15c30.327 0 55-24.673 55-55S251.327 276 221 276zM221 366h-5v-70h5c19.299 0 35 15.701 35 35S240.299 366 221 366zM356 276h-50c-5.523 0-10 4.478-10 10v90c0 5.522 4.477 10 10 10 5.522 0 10-4.478 10-10v-30h30c5.522 0 10-4.478 10-10s-4.478-10-10-10h-30v-30h40c5.522 0 10-4.478 10-10S361.522 276 356 276z"/></g></svg>
